<?xml version="1.0" encoding="UTF-8"?><svg xmlns="http://www.w3.org/2000/svg" width="30" height="30" viewBox="0 0 30 30"><g id="Layer_3"><path d="m9.7206,13.9546c-.3842-.2519-.5251-.2204-.4228.0942l.2929-.7071c-.2445.2891-1.1902.2513-1.5252.2073-.618-.0813-.9048-.4716-1.1285-1.0295-.4159-1.0375.4391-1.8463,1.3193-2.2966.9163-.4688,2.3236-.1243,3.302-.0274,1.2454.1234,2.4911.2166,3.7393.3071,1.1957.0867,2.3919.1862,3.5688.4226.856.1719,2.7714.4314,3.1914,1.2888.1985.4052.0352,2.824-.7195,2.1903-.2404-.2018.0338-.9707.1743-1.1463.076-.095.3035-.2399.2359-.2585-.1195-.0328-.3244.2174-.5313.2078l.8635.4953.0142.5045c.5354-1.161-1.188-2.1782-1.7269-1.0094-.384.8326-.2425,1.896.8492,2.0096.8478.0883,1.7878-.4971,2.2012-1.2214,1.0308-1.8057-.987-3.6935-2.7412-2.6526-1.4568.8644-1.9605,3.398-.6542,4.5992,1.478,1.3592,3.5838.0579,4.0036-1.6175.2228-.8894.2019-2.0353-.1335-2.8995-.3923-1.0109-1.3366-1.4306-2.2904-1.7951-2.1028-.8035-4.3892-.9823-6.6153-1.1398-1.1449-.081-2.2868-.172-3.429-.2851-1.0483-.1038-2.1745-.2902-3.2232-.0936-1.7279.324-3.6075,2.0674-3.539,3.9071.0368.9878.562,2.1104,1.2799,2.7931.8074.7679,2.0668.8485,3.115.6972.9877-.1426,2.178-.5035,2.1008-1.7115-.0745-1.1663-.9388-1.9702-2.1029-1.7617-1.2649.2265-.7289,2.1543.5317,1.9286h0Z" fill="#d8c0ff"/><path d="m8.5944,13.4715c-.0951-.7648-.2951-1.7712.3566-2.3482.6826-.6043,1.7563-.551,2.6046-.5622,1.032-.0136,2.0641-.0212,3.0961-.0318,1.1155-.0115,2.325-.1504,3.4175.1082l.2658-1.9643c-.7108.0814-1.1093.4348-1.7403.6911-.663.2693-1.5454.1642-2.2435.1483-1.6603-.0377-3.3093-.2597-4.9531-.4796l.7071,1.7071c.4873-.5979.9669-1.2004,1.7453-1.4025.6213-.1613,1.2962-.0872,1.9276-.0315,1.625.1435,3.2382.2629,4.8713.2476.8277-.0078,1.6561-.04,2.4836-.0089.648.0244,1.4162-.0116,1.8387.5507.4041.5379.9859,3.0963.0267,3.4017l1.2658.9643c.0166-1.7638.4383-3.6728-.4216-5.3175-.8007-1.5313-2.563-1.3894-3.5637-.148-.4463.5537-.6581,1.2736-1.1151,1.81-.4892.5742-1.3075.6687-2.0074.7908-.8959.1563-1.8099.4336-2.7251.3921-.4995-.0226-.9825-.1375-1.4688-.2473-.2038-.046-.4073-.0934-.611-.1401-.1527-.035-.3055-.07-.4582-.1051-.2154-.0593-.2045-.044.0324.0459l.2572.9729.0443-.1367-.4596.5976c-.2268.0338-.2311.0468-.013.0391.1603.0028.3205.0063.4807.0104.2671.0067.5341.0151.801.0248.5873.0213,1.1744.0495,1.7611.0847,1.1735.0704,2.3445.1718,3.5135.296,1.2784.1357,1.2688-1.8653,0-2-1.3816-.1467-2.7661-.2603-4.1536-.3317-.6403-.0329-1.281-.0577-1.9219-.0738-.4928-.0124-1.0451-.067-1.4772.2236-1.0592.7121-.3782,1.9006.6034,2.1757,1.2099.339,2.5557.6637,3.8175.5363,1.0789-.1089,2.2023-.3276,3.2572-.5798,1.0875-.26,1.9611-.7978,2.576-1.7426.2586-.3974.4288-.854.7047-1.2397.0407-.0568.3109-.4582.4256-.4213-.1454-.0468.1229.6217.1137.5886.3445,1.2388.0198,2.6316.0079,3.895-.0059.6299.6465,1.1615,1.2658.9643,1.864-.5935,2.1064-2.7848,1.8202-4.4527-.1554-.9055-.486-1.8962-1.1709-2.5441-.767-.7255-1.8797-.8299-2.8811-.8766-2.3754-.1107-4.7305.0281-7.1057-.2053-.9966-.0979-2.0266-.1894-3.0028.0998-1.062.3147-1.8155,1.0405-2.4989,1.879-.5844.717-.1721,1.5895.7071,1.7071,1.6438.2199,3.2928.4418,4.9531.4796.7326.0167,1.4959.0308,2.2221-.0888.3683-.0607.6988-.1585,1.0309-.3326.2133-.1118.4873-.3901.7309-.418,1.0369-.1187,1.4549-1.6828.2658-1.9643-1.4388-.3406-2.9714-.1897-4.438-.1747-1.3578.0139-2.7554-.0644-4.1044.109-1.0792.1387-2.1309.5386-2.8306,1.4079-.7932.9854-.7819,2.2261-.6333,3.4202.1568,1.2605,2.1588,1.2762,2,0h0Z" fill="#d8c0ff"/><path d="m19.0302,14.1045c-2.5229-.1295-5.0435-.2967-7.5615-.5014v2c2.5943-.0165,5.2775.0612,7.8514.4051l-.5047-.1365c-.1257-.1554-.1504-.162-.0742-.0199.0432.0987.0861.1974.1288.2963.0647.1517.128.3039.1884.4574.1444.3667.2772.7385.3811,1.1189.0705.258.1297.513.1396.7806.0064.1754-.0241.2231-.0338.3925-.0099.1714-.2356.2299.0029.1067l.7706-.1008c-.0619-.0105-.2908-.5361-.3516-.6971-.1402-.3715-.2326-.7606-.34-1.1423-.227-.807-.5036-1.7059-1.1218-2.3067-.7683-.7466-1.7835-.5704-2.7429-.4308-1.0071.1465-2.0023.361-3.0045.5357-.9948.1734-1.9609.2201-2.9661.2525-1.0298.0331-1.5972.778-1.6847,1.765-.0841.949.2626,1.9211.2738,2.8779.0119,1.0198-.1104,2.0352-.2315,3.0459-.1153.9628,1.4801,1.3976,1.8635.5047.4266-.9935.7299-2.0141,1.0272-3.0519.1448-.5056.2926-1.0109.4708-1.506.1395-.3875.2951-.9566.5894-1.2533l-.4413.2572.008-.0051-.5047-.1365c.3855.1998.663.4692,1.1085.5723.4998.1157.9985.0731,1.4992-.0084.9579-.156,1.8932-.4443,2.8159-.7392.4392-.1403.9404-.2459,1.2623-.5994.3609-.3965.391-.9798.1063-1.4247-.5322-.8318-1.8469-.888-2.7105-.7387-.884.1529-1.9978.6791-1.9978,1.7247,0,.9555.9918,1.639,1.7337,2.0628.7737.4421,1.7116.789,2.61.8219,1.2776.0469,1.4501-1.2364,1.4148-2.2229l-1.9643.2658c.4838,2.064,1.1154,4.0557,2.9023,5.3518.4494.326,1.1006.0608,1.3682-.3588.4364-.6842.5433-1.501.3098-2.2774-.2405-.7998-1.4023-1.0124-1.8277-.2389-.0653.1098-.1186.2254-.1601.3468-.0625.1701-.0419.1673.0618-.0084l.4413-.2572c.1442-.0349-.1714-.0547-.2315-.0674-.2147-.0453-.4258-.1072-.6336-.1774-.3697-.1249-.7198-.2907-1.0671-.4679-.7759-.3958-1.5228-.8479-2.3214-1.1984-.8796-.3861-1.7886-.6738-2.7142-.9264-.4598-.1254-.919-.2723-1.399-.2313-.5304.0453-.9255.3722-1.3115.7108-.6252.5485-1.4696,1.1546-1.743,1.9739-.2778.8325-.0214,1.9416.0663,2.7948.0508.4946.1414.932.579,1.2309.3821.261.8011.269,1.2513.2819,1.0277.0295,2.0553.0589,3.083.0884,2.2837.0654,4.5674.1309,6.8511.1963.9461.0271,1.2131-1.0762.7071-1.7071-.5892-.7346-1.4563-1.1706-2.2928-1.5621-.9604-.4494-1.9507-.8342-2.9368-1.2228-.9345-.3683-1.8723-.7307-2.8306-1.0333-.8704-.2749-2.0673-.7859-2.8453-.0477-.6161.5846-.704,1.8142-.6714,2.612.0207.5073.2068.9987.6644,1.2665.407.2382.8882.2054,1.3404.197,2.0279-.0376,4.0513.0055,5.9936.6514l.5317-1.9286c-2.5089-.4995-4.7078-1.9312-7.2941-2.1306-1.2836-.0989-1.2772,1.9016,0,2,2.3693.1826,4.4508,1.5989,6.7624,2.0591,1.2591.2507,1.7607-1.5198.5317-1.9286-1.1852-.3942-2.4226-.589-3.6665-.676-.5988-.0419-1.1991-.0565-1.7993-.0574-.4842-.0008-1.1919.1527-1.6294-.0142l.4413.2572-.099-.0899.2572.4413c-.1463-.3765.0958-.7614.0769-1.1384.1255-.3283.003-.2938-.3674.1033l.2085.0531c.2124.1293.5865.1615.8274.2352.8921.2728,1.7663.6006,2.635.9398.8591.3354,1.7234.6647,2.5648,1.0431.7823.3518,1.6344.7008,2.1832,1.385l.7071-1.7071c-1.7508-.0502-3.5017-.1004-5.2525-.1505-.8374-.024-1.6747-.048-2.5121-.072-.4567-.0131-.9135-.0262-1.3702-.0393-.2284-.0065-.4567-.0131-.6851-.0196l-.2284-.0065c-.2619-.006-.3045-.0079-.1277-.0056l.3588.3588c.0574.1298.0193-.2441.0166-.274l-.0453-.5141c-.0296-.3365-.0844-.6828-.0876-1.0208-.0046-.4824.6922-.8993,1.0302-1.2034.1025-.0922.2639-.2906.3842-.3403-.0757.0313-.0007.0237.0844.0286.3386.0198.7231.1935,1.0507.2877.6739.1938,1.3489.4043,1.985.7022,1.123.5259,2.1639,1.2048,3.3267,1.6487.5608.2141,1.224.4163,1.8303.3999.318-.0086.6205-.1317.8477-.3548.2294-.2252.2408-.4722.3689-.7051l-1.8277-.2389c.0881.293.0597.4731-.1082.7363l1.3682-.3588c-1.2922-.9373-1.6422-2.7018-1.9832-4.1565-.2559-1.0917-2.0048-.8652-1.9643.2658.006.1681.0689.5494-.0272.6813l.5976-.4596c-.2445.0841-.9845-.2448-1.2571-.3745-.3118-.1484-1.0582-.5374-1.1076-.7749v.5317c-.1854.1729-.2078.2153-.0671.1269.0576-.0356.1188-.0633.1836-.083.1288-.0484.2723-.081.4078-.0959.1331-.0146.2885-.0153.4195.0016.2348.0303.3143.2225.1322-.0908l-.1365-.5047-.0088.1117.2929-.7071-.0913.0945.4413-.2572c-1.048.4343-2.2524.77-3.3715.9567-.4868.0812-.6729.0256-1.071-.2304-.5162-.332-1.186-.3363-1.6553.0957-.7592.6988-1.0893,2.0232-1.3799,2.9779-.3286,1.0793-.5738,2.1984-1.0202,3.2381l1.8635.5047c.1467-1.2246.296-2.4616.205-3.6967-.0442-.5994-.198-1.1827-.2518-1.778-.0091-.1002.0229-.2238-.0028-.3146-.0369-.1298.1838-.2235-.1427-.0121-.3727.2413.1073.1202.2687.1196.1803-.0008.3606-.0069.5406-.0162,1.2464-.0644,2.4784-.3015,3.7023-.5331.6066-.1148,1.2139-.2326,1.8257-.3173.2082-.0288.5077-.115.718-.0709.1818.0381.2319.1749.3286.3695.4269.8594.5262,1.8538.9209,2.7325.4195.9341,1.5436,2.2191,2.5916,1.2405.7967-.7439.8121-1.9752.6063-2.9621-.1137-.5453-.305-1.075-.512-1.5909-.2064-.5144-.385-1.2213-.7971-1.6162-.5149-.4934-1.4427-.4062-2.1014-.4574-.6798-.0529-1.3598-.1035-2.0403-.1475-1.5117-.0976-3.025-.1592-4.54-.1495-1.3033.0083-1.2676,1.8969,0,2,2.5179.2047,5.0386.3719,7.5615.5014,1.2864.066,1.2828-1.9342,0-2h0Z" fill="#d8c0ff"/><path d="m8.9471,24.5265c2.0023-.1933,3.9926-.1498,5.9931.0423,2.0154.1935,4.0275.4458,6.0554.3047.405-.0282.5871-.397.4317-.7524-.0374-.0856-.0748-.1712-.1123-.2568-.2572-.5882-1.119-.0798-.8635.5047.0374.0856.0748.1712.1123.2568l.4317-.7524c-2.0279.1411-4.0399-.1118-6.0554-.3047-2.0007-.1915-3.9905-.2356-5.9931-.0423-.6349.0613-.6412,1.0619,0,1h0Z" fill="#d8c0ff"/><path d="m8.175,24.9757c1.7035.066,3.3966-.2088,5.1022-.1245.8359.0413,1.6645.1587,2.5028.1497.8483-.0091,1.6921-.084,2.5406-.0349.6429.0372.6408-.9629,0-1-.8483-.0491-1.6925.025-2.5406.0349-.8383.0099-1.6669-.1092-2.5028-.1497-1.7057-.0825-3.3987.1905-5.1022.1245-.6436-.0249-.6425.9751,0,1h0Z" fill="#d8c0ff"/><rect x="8.5" y="22.5" width="14" height="2" fill="none" stroke="#d8c0ff" stroke-miterlimit="10"/></g><g id="Layer_2"><path d="m9.3127,13.047c-.4311.537-.8922-.1858-.5913-.6352.3327-.4968,1.0588-.4224,1.5284-.2162.6382.2803.7787.6949.6607,1.3646-.0842.4778-.1873,1.027-.5706,1.3614-.348.3036-.8583.3894-1.2974.4727-.6181.1173-1.2953.2524-1.8896-.0256-.8681-.4061-1.6059-1.2856-1.9612-2.161-.8543-2.1047.4831-4.0217,2.4805-4.7107,1.0796-.3724,2.2211-.4534,3.3538-.5011,1.2416-.0523,2.4846-.0654,3.7272-.069,1.313-.0037,2.626-.0026,3.939.0011.6586.0018,1.3192.0061,1.9753.0698.6668.0647,1.3204.2763,1.9918.2664.6429-.0095.6448-1.0096,0-1-.8461.0125-1.7156-.2633-2.571-.3079-.9513-.0496-1.9071-.0287-2.8593-.0293-1.8192-.0012-3.6393-.0131-5.4579.0424-2.7189.083-6.2942.3447-7.5216,3.2614-.5639,1.34-.3574,2.8959.4065,4.115.7161,1.1428,1.9336,2.212,3.3482,2.1841,1.2743-.0252,2.9371-.3308,3.5459-1.5938.5624-1.1668.694-2.7013-.5216-3.4625-1.1486-.7192-3.1198-.5576-3.3998,1.0335-.2359,1.3405,1.4576,2.4099,2.391,1.2471.3991-.4972-.3041-1.2092-.7071-.7071h0Z" fill="#a0a0a0"/><path d="m20.6401,7.8988c1.3481.1139,2.9224.4153,3.7407,1.6167.1518.2229.4396.3224.6841.1794.221-.1293.3321-.4599.1794-.6841-1.0408-1.5282-2.8653-1.9651-4.6041-2.112-.2694-.0228-.5.2461-.5.5,0,.2894.2298.4772.5.5h0Z" fill="#a0a0a0"/><path d="m19.5908,7.9355c.0395-.0066.0791-.0127.1188-.0182l-.1329.0179c.3105-.041.624-.0414.9347-.0014l-.1329-.0179c.0635.0086.1268.0188.1898.0304.1345.0249.2637.0207.3853-.0504.1037-.0607.2026-.1796.2298-.2988.0292-.128.0228-.2717-.0504-.3853-.0671-.1041-.1723-.2064-.2988-.2298-.2482-.046-.5014-.0764-.7541-.0785-.2533-.0021-.5054.026-.7551.0677-.1163.0194-.2417.1322-.2988.2298-.0627.1072-.0893.2651-.0504.3853.0392.121.1141.2377.2298.2988l.1194.0504c.0886.0238.1772.0238.2658,0h0Z" fill="#a0a0a0"/><path d="m24.4187,9.6106c.4856.418.6596,1.1903.74,1.7995.0906.6867.0703,1.4336-.1285,2.1005-.3729,1.2506-1.8884,2.0284-3.1258,2.0376-.6432.0048-.6447,1.0048,0,1,1.6537-.0122,3.5092-1.0421,4.0561-2.6638.275-.8155.2943-1.7493.1823-2.595-.1094-.8256-.3586-1.8193-1.0169-2.3859-.4855-.4178-1.1959.2864-.7071.7071h0Z" fill="#a0a0a0"/><path d="m22.6273,15.5624c-.1985-.0375-.3924-.0511-.5934-.0377-.1857.0124-.3724.0385-.5588.0252-.0668-.0048-.2764-.0621-.3525-.0924-.1624-.0646-.3192-.1536-.471-.2398-.2856-.1623-.4913-.3019-.7074-.5383-.0642-.0702-.0599-.0635-.1078-.1338-.0462-.0678-.0851-.1389-.125-.2105-.0062-.0112-.0362-.0755-.0164-.0288-.014-.033-.0254-.0677-.0363-.1018-.0137-.0429-.0253-.0863-.0351-.1302-.0028-.0126-.019-.1222-.0116-.054-.029-.2685-.209-.5-.5-.5-.2478,0-.5292.2298-.5.5.0946.8754.6569,1.5246,1.3875,1.9739.3385.2082.7165.4124,1.1057.5025.2245.052.4512.064.6802.0477.1035-.0074.2068-.0182.3105-.0234.0823-.0041.2186-.0032.2656.0057.2651.05.5394-.0738.6151-.3492.067-.244-.0825-.5647-.3492-.6151h0Z" fill="#a0a0a0"/><path d="m19.6614,14.2582c-.0171-.2988-.0283-.5982-.0285-.8975,0-.1164.0021-.2328.0101-.3489.0108-.1563.0098-.1586.0492-.3143.015-.0592.0324-.1179.0538-.1751-.0239.0642.0381-.0749.0485-.093.0633-.1104.0825-.1301.201-.2352-.0007.0006.0647-.05.0298-.0244-.0404.0296.047-.0294.0548-.0344.051-.0324.1036-.0623.1575-.0898.0159-.0081.1287-.0599.0707-.0356.0641-.0268.1305-.0493.1967-.0704.2775-.0884.4966-.1337.7784-.1155.0282.0018.0631.006.1188.0192.0335.0079.066.0189.0994.0275-.0011-.0003.079.0271.037.0106-.0415-.0162.0349.0162.0346.0161.0304.0157.0607.0317.0899.0495.0218.0133.0435.027.0641.0421.0282.0194.0279.0195-.0009.0003l.0373.0346c.017.019.0357.0361.0524.0555.0537.0625-.0307-.053.015.0233.0144.0241.0289.0479.0422.0727.0017.0031.0349.0851.0161.0346.0196.0526.0342.1076.0471.1622.0087.0368.0158.0739.0227.111.0021.0113.0126.0865.0062.0355.0168.1335.0208.2671.0187.4014-.0012.0797-.0283.1775-.0676.2425-.0122.0202-.0247.0411-.0392.0597.0504-.0646-.0212.0129-.0321.0238-.0386.0386.0002.0056.0096-.0017-.0315.0247-.0667.0435-.101.0637-.0476.0282.0006.0051.0115.0004-.0367.0159-.0754.0248-.1137.0357-.055.0157.0041.0042.0156.0027-.0397.005-.0795.004-.1193.0031-.0586-.0013.0041.0023.0145.0043-.0393-.0077-.0772-.0182-.1151-.0305-.0545-.0177-.0002.0008.009.0054-.0359-.0178-.07-.0378-.1035-.0595-.0474-.0308-.0023-.0004.0057.0065-.0303-.026-.0583-.0541-.085-.0837-.0381-.0423-.0012-.0009.0045.0076-.0038-.0057-.0746-.1354-.0383-.0491-.1047-.2487-.3306-.4274-.6151-.3492-.2344.0644-.4546.3646-.3492.6151.1667.396.4335.6879.839.8462.3653.1426.7788.102,1.123-.0798.7659-.4046.8436-1.3172.6633-2.0768-.4197-1.7683-2.9878-1.5411-3.8829-.3129-.4997.6856-.4016,1.6667-.3561,2.4649.0149.2607.2193.5126.5.5.2581-.0116.516-.2203.5-.5h0Z" fill="#a0a0a0"/><path d="m20.7843,10.7156l-7.4197.0713c-1.2065.0116-2.4146.0058-3.6207.0353-.8056.0197-1.6892.2647-1.8704,1.1654-.1265.6284.8372.8972.9643.2658.0991-.4925.7338-.4294,1.1211-.4338.5271-.0061,1.0542-.0101,1.5812-.0152l3.0409-.0292,6.2033-.0596c.6431-.0062.6447-1.0062,0-1h0Z" fill="#a0a0a0"/><path d="m20.374,11.7392c.1601-.0167.3205-.0328.4816-.0378.0854-.0026.1709-.0023.2562.0029.0317.002.0632.0053.0949.0079.0549.0065.0419.0046-.039-.0054.0207.0033.0414.007.062.011.0723.0143.142.0352.2119.0583.0501.0193.0396.0143-.0315-.0149.0193.0086.0383.0177.0572.0273.0374.0191.0738.04.1093.0625.0266.0169.052.0355.0781.0531.0426.0317.0339.0249-.0262-.0204.0163.0133.0325.0269.0484.0407.0638.0554.1236.1148.1819.1759.1808.1898.5275.1957.7071,0,.1869-.2036.1929-.5046,0-.7071-.2844-.2985-.6309-.544-1.0394-.6333-.3829-.0837-.7662-.0611-1.1523-.0208-.1361.0142-.2534.0463-.3536.1464-.0867.0867-.152.229-.1464.3536.0111.2476.2214.5291.5.5h0Z" fill="#a0a0a0"/><path d="m8.2873,11.3305c-.172.1794-.3279.3757-.4692.5799l.8635.5047c.0494-.1156.1132-.2241.19-.3236l-.0782.1012c.0386-.0495.0802-.0964.1247-.1407.0488-.0453.0832-.0989.1034-.1609.0313-.0596.0457-.1238.0431-.1926.0026-.0688-.0118-.1331-.0431-.1926-.0202-.062-.0546-.1156-.1034-.1609l-.1012-.0782c-.078-.0452-.1621-.068-.2524-.0683l-.1329.0179c-.0847.0238-.1582.0666-.2206.1286-.0338.0337-.0661.0688-.0966.1056-.0557.0673-.11.1367-.1593.209-.0538.0789-.0995.163-.1371.2509-.0365.0574-.0563.1194-.0593.1859-.0149.0665-.0119.1329.0089.1994.0155.0651.0453.1217.0895.17.0353.0544.082.0974.1403.1288l.1194.0504c.0886.0238.1772.0238.2658,0l.1194-.0504c.0751-.0445.1349-.1042.1794-.1794.0386-.0557.0785-.1105.1199-.1642l-.0782.1012c.0848-.1096.1752-.2145.2711-.3145.0488-.0453.0832-.0989.1034-.1609.0313-.0596.0457-.1238.0431-.1926.0026-.0688-.0118-.1331-.0431-.1926-.0202-.062-.0546-.1156-.1034-.1609l-.1012-.0782c-.078-.0452-.1621-.068-.2524-.0683l-.1329.0179c-.0847.0238-.1582.0666-.2206.1286h0Z" fill="#a0a0a0"/><rect x="11.5" y="13.5" width="8" height="0" fill="none" stroke="#a0a0a0" stroke-miterlimit="10"/><rect x="7.5" y="16.5" width="1" height="8" fill="none" stroke="#a0a0a0" stroke-miterlimit="10"/><rect x="21.5" y="16.5" width="1" height="8" fill="none" stroke="#a0a0a0" stroke-miterlimit="10"/><rect x="10.5" y="17.5" width="1" height="7.5" fill="#a0a0a0"/><rect x="12.5" y="17.5" width="1" height="7.5" fill="#a0a0a0"/><rect x="14.5" y="17.5" width="1" height="7.5" fill="#a0a0a0"/><rect x="16.5" y="17.5" width="1" height="7.5" fill="#a0a0a0"/><rect x="18.5" y="17.5" width="1" height="7.5" fill="#a0a0a0"/></g></svg>