<?xml version="1.0" encoding="UTF-8"?><svg xmlns="http://www.w3.org/2000/svg" width="30" height="30" viewBox="0 0 30 30"><g id="Layer_3"><path d="m12.401,1.9535c-.4538-.0882-.8732.1301-1.0863.5396-.1679.3227-.2611.6956-.3589,1.0442-.0962.3428-.1891.6918-.2476,1.0433-.0386.2319-.0553.4531-.0026.6846.0489.2148.1621.3895.2944.5607.1608.2079.5403.1817.7071,0,.2024-.2205.1716-.4852,0-.7071.0691.0893-.0494-.1397-.0109-.0277-.0023-.0066-.0434-.1565-.0239-.0529-.0257-.1362-.0001-.2003.0282-.3378.0544-.2638.1181-.5259.1887-.7859s.1482-.5183.2347-.7734c.0151-.0447.0301-.0896.0474-.1335-.0347.0878.0417-.0732.0536-.0906-.0524.0765.0368-.0667-.0156.0118.0519-.029.0548-.0318.0087-.0083-.0279.0064-.0556.0055-.0831-.0027.256.0497.5519-.0721.6151-.3492.0563-.2473-.0747-.5617-.3492-.6151h0Z" fill="#ffcced"/><path d="m12.6969,2.9577c.3687.0445.7372-.0121,1.1064.0115.181.0116.3947.072.5108.2063-.0545-.063.0366.0753.0318.0625.0126.0333.0215.1014.0221.1111.0116.174-.0045.2629-.0337.4182-.0644.3429-.1468.6827-.244,1.0178-.047.1622-.0977.3233-.1521.4832-.0273.08-.0498.1674-.0864.2437.0198-.0411-.0097.0228-.0214.0321.0133-.0107.0181-.0324.0371-.0373.0549-.0139-.1201.0201-.0815.0138-.0927.0153-.1875.0228-.2809.0321-.1876.0186-.3757.0317-.564.0391s-.3769.0092-.5654.0055c-.0642-.0013-.2003-.035-.2584-.0093l.1378.1061c.1116.1321.1557.1596.1323.0823-.0082-.0355-.0075-.0317.0019.0114l-.0031-.0573c-.001-.3104-.0145-.6164.0118-.9266.0156-.1839.0262-.2589.0626-.4391.0339-.1678.0775-.3338.1326-.4958.082-.2411.2542-.5674.4163-.7628l-.8536-.3536c-.0446.5019-.1213.9986-.2292,1.4908-.1184.5403-.2723,1.0474-.0176,1.5749.1561.3234.7095.3303.8635,0,.2248-.4823.3549-.9918.5285-1.4926.1329-.3833.3075-.7337.6211-1.0054l-.8357-.4865c-.0807.5415-.3041,1.0414-.4618,1.562-.1549.5113-.3877,1.3875.1833,1.7221.2439.143.5332.0448.6841-.1794.6005-.8923,1.0326-1.9006,1.2663-2.9504l-.9821-.1329c-.0986.9414-.2873,1.8711-.5485,2.7806-.0745.2594.091.5441.3492.6151.2637.0724.5403-.0887.6151-.3492.2862-.9967.4762-2.0153.5842-3.0465.0255-.2439-.2097-.4644-.4335-.4911-.2347-.0279-.4937.1114-.5486.3581-.2181.9797-.605,1.8786-1.1655,2.7115l.6841-.1794c.0779.0442.1233.1041.1363.1797.007.0397.0084.0259.0041-.0415.0033-.0505.0033-.1012.0074-.1517.0072-.0897.0186-.1484.0423-.2556.0463-.2092.1121-.4135.1815-.616.143-.4178.3012-.8307.3666-1.2697.0333-.2234-.0222-.4433-.2298-.5647-.2008-.1174-.4369-.0683-.6059.0782-.3931.3406-.6347.8035-.8184,1.282-.179.4663-.2762.9649-.4876,1.4184h.8635c.0235.0487-.024-.0919-.0116-.0228-.0066-.037-.0045-.0788-.0037-.1163.0022-.1126.0112-.1336.0378-.2526.0507-.227.1067-.4524.1517-.6808.0968-.4916.1647-.9895.2091-1.4885.0372-.4178-.5833-.6794-.8536-.3536-.5475.66-.8034,1.4452-.8934,2.2893-.0403.3779-.051.7693-.016,1.1482.0253.274.1262.528.3818.6647.2187.1169.5013.0966.7423.0979.492.0027.9853-.0326,1.4719-.1057.2204-.0331.42-.1149.5775-.2777.1791-.1852.2551-.4435.3359-.6815.1449-.4264.2643-.8615.3564-1.3023.0895-.428.1838-.8953.028-1.3199-.17-.4634-.5756-.7665-1.0476-.8807-.51-.1235-1.0281-.0113-1.5424-.0735-.2685-.0324-.5.253-.5.5,0,.2972.2307.4675.5.5h0Z" fill="#ffcced"/><path d="m12.3054,7.7554c.531.21,1.1224.554,1.7097.4429.6994-.1324,1.2283-.8518.9763-1.5642-.1654-.4676-.585-.7933-1.0972-.7163-.441.0663-.9294.4825-.8671.9821.0846.6784.1396,1.4884.4826,2.0972.3389.6015.9679.8755,1.5933,1.0858.5747.1933,1.1749.2951,1.7609.4462.2639.0681.5372.1393.7881.2475.0742.032.5035.2772.4662.3083-.0316.0264-.0622-.1526-.0515-.1296.0213-.0857.0225-.0934.0035-.0232-.0374.1187-.0038.0683.1009-.1512.1005-.096.2155-.1316.3449-.1067l-.1301-.0302c-.1292-.0546-.277-.0798-.4105-.127-.5585-.1971-1.0804-.5277-1.5758-.8468-.5114-.3295-1.0053-.6857-1.4974-1.0433-.4154-.3018-.7578-.6055-.8987-1.1137-.2784-1.0037-1.6041-.8931-1.9286,0-.2233.6146-.4572,1.2205-.8166,1.7711-.302.4626-.7185.86-1.0395,1.3241-.3735.5399-.5736,1.1728-.5695,1.8303.0041.6629.222,1.3018.196,1.9666-.0212.5401.4748,1,1,1,.5593,0,.9788-.4582,1-1,.0243-.6203-.1559-1.214-.1909-1.8276-.0274-.48.1405-.7865.4433-1.155.3989-.4855.8101-.9533,1.113-1.5081.3242-.5938.5623-1.2352.7928-1.8697h-1.9286c.4433,1.5984,2.0014,2.5058,3.3152,3.3522,1.0848.6989,3.1425,2.0007,4.2534.7251.5231-.6006.5464-1.5013.1163-2.1591-.4259-.6513-1.1623-.9888-1.8769-1.2227-.6913-.2263-1.4159-.3273-2.1104-.5419-.1463-.0452-.4547-.1188-.5278-.2177-.0922-.1247-.1039-.4304-.1336-.5816-.0325-.1654-.0631-.332-.084-.4994l-1.9643.2658.0317.0895v-.5317l-.0229.0949.2572-.4413.0487-.0245.5047-.1365c-.2619.0221-.768-.2797-1.0451-.3893-.5024-.1987-1.098.2176-1.2301.6984-.1561.5682.1942,1.0307.6984,1.2301h0Z" fill="#ffcced"/><path d="m9.5253,13.5572c.0477.393.1027.7813.2126,1.1623.0456.158.0988.313.1579.4664.0499.1237.1012.2467.154.3692.0598.1422.0738.1725.0423.0907v-.5317l-.0139.069.6984-.6984-.0422.0115.7706.1008-.0374-.0253.4596,1.1293.0067-.0337-.6984.6984c1.1132-.218,1.5236-1.2954,1.7868-2.2615.2268-.8327.4516-1.7508.9934-2.421.0817-.1011.2422-.2433.332-.3384.0741-.0784.1109-.0298.0521-.0621-.1284-.0446-.181-.0389-.1579.0169.0149.0466.0543.0735.1183.0806.1384.149.3875.259.5546.3781.1675.1193.3332.2411.4947.3685.7558.5959,1.4515,1.2658,2.092,1.9836l-.2572-.9729c-.0573.258-.0928.5348-.1929.7798l.2572-.4413.0514-.0338.5047-.1365c.0017-.0001.0841.0237.0861.0265-.0429-.0593-.21-.1273-.2784-.1703-.1474-.0926-.2929-.1881-.4365-.2865-.2895-.1984-.5678-.4076-.8363-.6335-.5834-.491-1.1196-1.0327-1.6122-1.6145-.5326-.6289-1.4275-.1946-1.6714.4413-.5431,1.416-.8699,2.8791-1.0378,4.3848-.0438.3932.3393.8997.7342.9643.5345.0875.9688-.0174,1.3558-.4125.2055-.2097.4263-.5369.539-.6725.0889-.1069.179-.218.2849-.3089-.1051.0901.2258-.0583.0733-.0415-.0798.0088.1191.0294.1677.0454.1091.0359.137.056.2513.1188.2577.1417.3884.2362.5909.4377.2345.2332.3063.4463.5511.7024.3741.3913.9838.4646,1.4489.1924.4532-.2652.5844-.7252.6417-1.211.0633-.5372-.5049-1-1-1-.5931,0-.9365.4612-1,1l.1465-.3596.4413-.2572-.0909.0323h.5317l-.091-.0184.4413.2572c.1922.1739-.0611-.0908-.1059-.1522-.1072-.1471-.2193-.2933-.34-.4298-.1557-.1761-.329-.3315-.5128-.4777-.5068-.4031-1.094-.7437-1.7421-.8418-.6697-.1014-1.2756.1123-1.7786.5555-.1732.1526-.3158.3309-.4575.5121.1594-.2039-.3339.4252-.1991.2581-.0441.0562-.0894.1114-.1358.1657-.118.1143-.0877.1122.0909-.0063h.5317l-.1025-.0168.7342.9643c.1471-1.3193.4915-2.6153.9664-3.8531l-1.6714.4413c.8576,1.0127,1.8592,1.8948,2.9613,2.634.6319.4238,1.3706.9014,2.1264.4453.3619-.2184.5239-.6129.6128-1.0061.0507-.2241.1347-.4823.1347-.7115,0-.3293-.1754-.5716-.3823-.8073-.88-1.0025-1.9208-1.8786-3.0117-2.642-.6968-.4876-1.4507-.8989-2.2897-.456-.5837.3082-1.0579.874-1.4066,1.422-.4103.6449-.6671,1.3878-.877,2.1185-.0995.3465-.1823.6984-.2896,1.0425-.0336.1076-.0926.2541-.138.3179.0394-.0553-.0717.0653-.0681.0633.073-.0403.1041-.0535-.0417-.0249-.316.0619-.636.3828-.6984.6984l-.0067.0337c-.092.4654.0689.8647.4596,1.1293.2474.1676.5677.1919.8501.1146.3177-.087.6313-.3642.6984-.6984.1468-.7312-.3928-1.4265-.4814-2.1577-.065-.5361-.4131-1-1-1-.49,0-1.0655.4602-1,1h0Z" fill="#ffcced"/><path d="m12.0342,17.6211c1.3004.2931,2.5022-.0908,3.6791-.6335.0649-.0299.5735-.2416.5716-.2706.0115.1806-.3856-.1442-.0701.0522.0667.0415.1471.0717.2171.1091.3275.1747.6148.3336.6433.619.052.52-.1875,1.1091-.2535,1.6221-.0754.5866-.0997,1.1746-.0708,1.7653.0307.6262.1127,1.2524.2175,1.8702.003.018.0832.5627.0885.5637.0012.0002.2819-.2482.1715-.16-.0601.048-.0242-.0361.0584.0278.1027.0794-.1109-.0751-.0907-.0498-.1138-.1425-.168-.2991-.2162-.4716-.1572-.5632-.1494-1.1672-.0852-1.7442.1244-1.1178.5128-2.1938.7513-3.2892.114-.5237.2341-1.0633.0578-1.5874-.2376-.7059-.9639-1.069-1.6807-.8911-.579.1437-.9428.6204-1.3822.9764-.3738.3028-.874.2267-1.3201.365-.6283.1947-1.1694.6368-1.354,1.2859-.1805.6348-.2275,1.3357-.3391,1.9856-.2414,1.4059-.502,2.8084-.7796,4.2076-.105.5292.151,1.0797.6984,1.2301.4919.1352,1.1245-.1661,1.2301-.6984.3592-1.8107.6895-3.6271.9878-5.4489.0335-.2043.0867-.4153.1019-.6216l.0289-.1227-.088.1396c-.0018.0435-.0106-.0347.0692-.0421.1903-.0176.655-.0925.926-.1577.4626-.1112.8462-.3593,1.2033-.6654.2069-.1773.407-.4855.6801-.5225h-.5317l-.3466-.4001-.0079-.0685c-.0024.0005-.0094.1803.011.0392-.0337.2334-.0922.4671-.1457.6967-.1077.4625-.2334.9206-.3513,1.3805-.2314.9025-.431,1.8274-.4552,2.7622-.023.8907.1017,1.9151.6108,2.672.4944.735,1.3859,1.1984,2.277.9516.9246-.2561,1.3905-1.112,1.2877-2.0362-.1027-.9226-.2997-1.8041-.2956-2.7403.0018-.4188.023-.8409.0992-1.2533.0873-.473.2227-.9442.2372-1.428.0284-.9459-.4683-1.7048-1.218-2.235-.3395-.2401-.7504-.4542-1.146-.5835-.5793-.1894-1.0696-.0087-1.5907.2417-.7727.3712-1.6738.8282-2.554.6298-.5264-.1187-1.0823.1605-1.2301.6984-.1382.5028.1693,1.1109.6984,1.2301h0Z" fill="#ffcced"/><path d="m11.3873,20.0673c-.6522,2.0894-1.3065,4.1782-1.963,6.2662-.2325.7394.5157,1.4214,1.2301,1.2301.331-.0886.5968-.2488.8458-.4819.3828-.3583.389-1.0571,0-1.4142-.41-.3764-1.0059-.3823-1.4142,0,.0385-.0361.2399-.0869.0367-.0325l1.2301,1.2301c.6565-2.0881,1.3108-4.1768,1.963-6.2662.1559-.4994-.1841-1.113-.6984-1.2301-.5435-.1238-1.0632.1637-1.2301.6984h0Z" fill="#ffcced"/><path d="m11.8849,26.8312c.831-.2228,1.6061-.5985,2.4222-.8646.337-.1099.6898-.213,1.0371-.2374.1938-.0136.3984-.0233.5911.0051-.0559-.0083.1482.0344.1201.0279.0638.0145.1268.0322.1888.053.129.0462.088.0159-.1231-.0909l-.2929-.7071.0093.0731.2929-.7071-.064.0662.4413-.2572c-.6471.1659-1.3604.1958-2.0225.2853l.5317,1.9286c.6787-.2557,1.3653-.489,2.0609-.6945.6463-.191,1.3442-.2939,1.9694-.5427.8546-.34,1.2703-1.1406,1.087-2.04-.139-.6818-.5945-1.2717-1.0217-1.7997-.8759-1.0825-1.9241-2.0305-2.9615-2.9541-.5598-.4984-1.2344-1.3219-2.0743-1.113-.885.2201-1.0054,1.1847-1.1867,1.9379-.3949,1.6406-.6411,3.3188-.7562,5.0019-.0495.7238.9001,1.2921,1.5047.8635.943-.6685,1.4135-1.8831,1.8548-2.9159.2317-.5422.4418-1.0927.5651-1.6709.145-.6797.0827-1.6769-.8011-1.8091-.7014-.1049-1.1774.2656-1.2658.9643-.1983,1.5675-.223,3.1459-.0738,4.7188.051.5377.4231,1,1,1,.5013,0,1.0513-.4591,1-1-.1492-1.5729-.1245-3.1513.0738-4.7188l-1.2658.9643.0696.0104-.4413-.2572.0489.0499-.2572-.4413c-.0082-.0211-.0036-.1231.0114-.1474-.0387.0625-.0402.1952-.0573.268-.047.1998-.1044.3972-.1685.5921-.1094.3325-.2409.654-.3889.9709-.1557.3334-.3226.6615-.4907.9888-.0855.1664-.169.3342-.2663.4941-.0576.0947-.1203.1864-.1562.2119l1.5047.8635c.0633-.9269.1684-1.8479.3294-2.7629.0798-.4533.1708-.9046.2727-1.3534.0536-.2362.1103-.4717.1701-.7065.0299-.1174.0604-.2346.0918-.3516l.038-.1403c.073-.2157.043-.1905-.0899.0758l-.4413.2572.1037-.0294h-.5317c-.1474-.1171-.1735-.1349-.0783-.0534.0352.031.0704.0619.1056.0929.088.0775.1761.1549.264.2325.1759.1552.3515.3108.5263.4672.3669.3284.7306.6606,1.0868,1.0007.6444.6153,1.3247,1.2533,1.8429,1.9818.1237.1739.2425.3584.3353.5511-.0446-.0926.0649.1391.0231.064.0032-.058.0043-.0288.0033.0878l.0545-.1992c.054-.0884.2257-.1214.1189-.1159-.0855.0044-.1858.052-.2715.0733-.2346.0583-.4697.114-.7035.1756-.9821.2585-1.9486.5705-2.8989.9285-.5051.1903-.8509.6752-.6984,1.2301.1589.5781.6927.7711,1.2301.6984.4192-.0567.8385-.1133,1.2577-.17.4699-.0635.9208-.0726,1.2701-.4387.4585-.4805.3387-1.2374-.1671-1.6245-.3822-.2925-.9105-.3816-1.3774-.4309-1.6643-.1756-3.0984.7454-4.6469,1.1606-1.2419.333-.715,2.2628.5317,1.9286h0Z" fill="#ffcced"/></g><g id="Layer_2"><path d="m12.5257,8.4275c.1025-.6046-.0511-1.1593-.3849-1.6702-.2936-.4494-.6979-.8132-.9905-1.2619-.2858-.4382-.3653-1.0113-.2517-1.5245.0534-.2411.2018-.4527.3025-.6753.1377-.3045.214-.6281.338-.937.1153-.2872.2828-.2632.572-.2775.3116-.0154.624-.0279.9361-.0271.5132.0013,1.1778.0148,1.4178.5475.2414.5359.3281,1.1487.2979,1.7318-.0317.6125-.2737,1.187-.324,1.7975-.0518.6297.0889,1.5121.516,2.005.4392.5069,1.2507.5144,1.867.6167.6295.1045.9002-.859.2658-.9643-.3126-.0519-.6257-.1021-.9373-.1599-.3314-.0615-.4741-.1092-.5735-.4423-.0964-.3233-.1657-.6554-.142-.9943.0239-.3417.1391-.6715.2112-1.0048.1442-.667.1552-1.3409.0301-2.0119-.1097-.5883-.3158-1.2841-.8118-1.6614-.5086-.3869-1.198-.4581-1.8173-.4596-.5791-.0015-1.3605-.0757-1.8817.2145-.579.3223-.6204,1.0803-.8742,1.6211-.1257.2679-.2867.5246-.357.8154-.0787.3258-.0777.6838-.0603,1.0169.0361.6901.3435,1.2316.7714,1.7566.3688.4525,1.0266,1.031.916,1.683-.1068.6295.8567.9.9643.2658h0Z" fill="#a0a0a0"/><path d="m16.9811,8.7805c.7395.0463,1.4654.2571,1.7717.9683.1582.3673.2815.7593.398,1.1416.0669.2197.1266.4417.1738.6665.0223.106.0434.2128.0582.3202.0038.0274.007.0549.01.0824.004.036.0073.0721.0102.1082.0031.0624.0065.0482.0104-.0425l.2298-.2988-.0269.0141.2524-.0683c-.2416.0126-.4911-.0127-.733-.0203-.2701-.0085-.5.2359-.5.5,0,.278.229.4915.5.5.1635.0051.327.0103.4905.0154.1693.0053.3398.0216.4949-.0633.3818-.2091.2799-.6425.2261-.9927-.0975-.6353-.3065-1.2451-.5247-1.8474-.1031-.2844-.2054-.5815-.3784-.8323-.1792-.2599-.3986-.47-.6615-.6448-.531-.3532-1.1765-.4671-1.8015-.5062-.2698-.0169-.5.2419-.5.5,0,.2847.2294.4831.5.5h0Z" fill="#a0a0a0"/><path d="m18.6818,12.0904c-.2247,2.1119-.2933,4.3208-.2446,6.4435.0215.9386.0553,1.9245.3834,2.8148.0814.2209,1.1806,2.3615,1.1873,2.358-.5704.2985-.0655,1.1618.5047.8635.9439-.4939.3038-1.5382-.0638-2.1941-.552-.985-.9059-1.8681-.9778-3.0129-.0744-1.1843-.0364-2.373.0156-3.5573.0542-1.2346.0645-2.4867.1952-3.7156.068-.6392-.9325-.6344-1,0h0Z" fill="#a0a0a0"/><path d="m12.0178,25.0408c1.173-.4064,2.2998-.7385,3.545-.7959,1.1892-.0548,2.1699-.5444,3.0701-1.3053.4921-.416-.2183-1.1204-.7071-.7071-.3894.3292-.8275.6311-1.3077.8112-.5034.1888-1.004.1875-1.5321.2212-1.1541.0738-2.2491.4359-3.3339.8117-.6044.2094-.3446,1.1757.2658.9643h0Z" fill="#a0a0a0"/><path d="m11.62,8.2057c-.8314.8819-1.9218,1.5424-2.5184,2.6294-.6109,1.113-.4422,2.4863-.2144,3.6854.1832.9644.4841,2.6136,1.7433,2.6489,1.07.0299,2.0689-.8806,2.4568-1.816.2395-.5777.2989-1.2613.0042-1.8317-.1491-.2886-.3863-.4991-.6418-.6924-.1831-.1385-.6052-.3643-.5337-.6435.1598-.6237-.8044-.8898-.9643-.2658-.1496.5839.1346,1.0982.5812,1.4639.2199.1801.5282.3296.6676.5868.1389.2563.1052.5736.0242.8418-.1388.4597-.4621.8626-.87,1.1129-.1861.1142-.556.3244-.7866.2319-.213-.0854-.3131-.4057-.3797-.6001-.2188-.6384-.3665-1.3125-.44-1.9831-.0671-.613-.14-1.3038.0646-1.898.4098-1.1906,1.6904-1.8895,2.5141-2.7632.4413-.4681-.2645-1.1766-.7071-.7071h0Z" fill="#a0a0a0"/><path d="m12.4912,14.1983c-.6497-.0752-1.3277.185-1.7909.6389-.1871.1834-.1976.5257,0,.7071.2013.1847.5075.1957.7071,0,.0489-.0479.1001-.0928.1539-.1351l-.1012.0782c.1211-.0926.2521-.1687.3921-.2289l-.1194.0504c.1479-.0614.3015-.1034.46-.1256l-.1329.0179c.1436-.0182.2875-.0195.4313-.0029.1187.0137.2728-.0657.3536-.1464.0867-.0867.152-.229.1464-.3536-.0058-.1293-.0483-.2634-.1464-.3536-.1039-.0954-.2143-.1303-.3536-.1464h0Z" fill="#a0a0a0"/><path d="m15.3349,14.3356c.2626.3904.6536.6631,1.1076.787.4937.1348,1.0175.0843,1.5077-.0384.2538-.0635.431-.3623.3492-.6151-.085-.2628-.3431-.4173-.6151-.3492-.1014.0254-.2033.0447-.3058.0648-.0571.0087-.0515.0083.0169-.001-.0194.0025-.0388.0047-.0582.0066-.0453.0047-.0906.0084-.136.0107-.1042.0053-.2066-.0003-.3106-.0051-.1067-.0049.0927.0209-.0212-.0021-.0437-.0088-.0872-.0166-.1304-.0275-.0718-.0181-.1392-.0484-.21-.0683.1371.0386.0129.0035-.0237-.0157-.0371-.0195-.0734-.0405-.1087-.0631-.0079-.0051-.0679-.0563-.0774-.0533.0595.0469.0688.0535.0278.0199-.0158-.0135-.0313-.0274-.0464-.0416-.0304-.0286-.0574-.0599-.0863-.0899-.0338-.0408-.0272-.0315.0198.028-.0124-.0168-.0243-.034-.0357-.0515-.1457-.2167-.4472-.3321-.6841-.1794-.2159.1392-.3355.452-.1794.6841h0Z" fill="#a0a0a0"/><path d="m14.1963,14.6558c-.0444.0662-.0909.1308-.1395.1939l.0782-.1012c-.1764.2267-.3798.4304-.6063.607l.1012-.0782c-.0631.0487-.1276.0953-.1938.1397-.1086.073-.1943.1698-.2298.2988-.033.1197-.0181.2791.0504.3853.0688.1068.1713.2007.2988.2298.1265.0288.2739.0245.3853-.0504.4457-.2994.82-.6739,1.119-1.12.0696-.1039.0828-.2678.0504-.3853-.0319-.116-.1216-.2417-.2298-.2988-.116-.0613-.2566-.092-.3853-.0504-.1283.0415-.2234.1172-.2988.2298h0Z" fill="#a0a0a0"/><path d="m14.9425,20.0499h.4457c.0688.0026.1331-.0118.1926-.0431.062-.0202.1156-.0546.1609-.1034.0488-.0453.0832-.0989.1034-.1609.0313-.0596.0457-.1238.0431-.1926l-.0179-.1329c-.0238-.0847-.0666-.1582-.1286-.2206l-.1012-.0782c-.078-.0452-.1621-.068-.2524-.0683h-.4457c-.0688-.0026-.1331.0118-.1926.0431-.062.0202-.1156.0546-.1609.1034-.0488.0453-.0832.0989-.1034.1609-.0313.0596-.0457.1238-.0431.1926l.0179.1329c.0238.0847.0666.1582.1286.2206l.1012.0782c.078.0452.1621.068.2524.0683h0Z" fill="#a0a0a0"/><path d="m11.3437,17.4701c.0843.8502-.4957,1.6469-.821,2.3991-.3495.8082-.6449,1.6393-.7757,2.5132-.0615.4111-.0476.8352-.1206,1.243-.0772.4309-.3175.7662-.5364,1.1334-.1876.3146-.3037.6356-.275,1.0053.0378.4867.1776.8909.0825,1.3885-.1202.6289.8434.8982.9643.2658.0841-.4403.1085-.8694.0336-1.3136-.0385-.2283-.122-.422-.0491-.6508.058-.1821.2165-.3559.3136-.5186.4773-.7997.4307-1.5731.5784-2.4575.15-.8981.4803-1.7574.8613-2.5803.3576-.7724.8318-1.5437.7442-2.4276-.0629-.6345-1.0635-.641-1,0h0Z" fill="#a0a0a0"/><path d="m8.892,26.7863c-.0469.4501-.0315.9344.2958,1.2852.2959.3171.7205.4127,1.1275.2637.4573-.1673.7962-.5826,1.1966-.8473.4193-.2771.8734-.4963,1.3674-.5999.5552-.1165,1.0828.0025,1.6343.0772.5046.0683.9966.0524,1.4971-.0416,1.0487-.197,2.0101-.7329,2.9205-1.2662.555-.3251.0523-1.1898-.5047-.8635-.7728.4527-1.5649.9031-2.4429,1.1147-.8832.2128-1.6708-.0751-2.5509-.0774-.7598-.0019-1.5062.25-2.1588.6278-.3562.2062-.6695.4621-.99.7176-.0598.0477-.28.264-.3479.2376-.1477-.0574-.0555-.5175-.044-.6279.0666-.6394-.9339-.6347-1,0h0Z" fill="#a0a0a0"/><path d="m18.8619,25.6999c.4938-.3005,1.0004-.5869,1.483-.9052.2842-.1875.5224-.4133.6409-.7395.1252-.3446.0441-.7167-.1936-.9889-.1726-.1977-.5329-.1898-.7071,0-.1934.2107-.1841.4963,0,.7071-.0475-.0662-.0606-.0834-.0394-.0515.0071.0103.0134.021.0191.0321-.0098.0009-.0449-.1327-.0191-.0386.0167.0608-.0196.0389-.0029-.0465-.0036.0186,0,.0449.0009.0637.0025.0599.0266-.1256.007-.0432-.0061.0256-.0128.0502-.0203.0755-.0236.0797.0454-.0857.015-.0356-.011.0182-.0218.0372-.0322.0558-.0424.0756.0551-.0588.0147-.0173-.0174.0179-.0333.0373-.051.0549-.0215.0213-.0441.0408-.0666.0608-.0659.0587.0681-.0473.0177-.0129-.0898.0613-.1806.1198-.2736.1764-.4323.2632-.8648.5263-1.2971.7895-.2234.1359-.3275.4543-.1794.6841.1446.2243.445.3249.6841.1794h0Z" fill="#a0a0a0"/></g></svg>